<svg fill="#000000" xmlns="http://www.w3.org/2000/svg"  viewBox="0 0 50 50" width="150px" height="150px"><path d="M 25 2 C 12.309295 2 2 12.309295 2 25 C 2 37.690705 12.309295 48 25 48 C 37.690705 48 48 37.690705 48 25 C 48 12.309295 37.690705 2 25 2 z M 25 4 C 36.609824 4 46 13.390176 46 25 C 46 36.609824 36.609824 46 25 46 C 13.390176 46 4 36.609824 4 25 C 4 13.390176 13.390176 4 25 4 z M 25 14 C 21.666667 14 19.724726 15.81422 18.855469 17.552734 C 17.986212 19.291248 18 21 18 21 L 20 21 C 20 21 20.01379 19.708752 20.644531 18.447266 C 21.275274 17.18578 22.333333 16 25 16 C 25 16 26.291248 16.01379 27.552734 16.644531 C 28.81422 17.275274 30 18.333333 30 21 C 30 22.464286 29.425319 23.469579 28.427734 24.439453 C 27.43015 25.409327 25.996094 26.261719 24.496094 27.136719 C 22.996094 28.011719 21.43015 28.909327 20.177734 30.126953 C 18.925319 31.344579 18 32.964286 18 35 L 18 36 L 32 36 L 32 34 L 20.216797 34 C 20.431582 33.076487 20.836632 32.275747 21.572266 31.560547 C 22.56985 30.590673 24.003906 29.738281 25.503906 28.863281 C 27.003906 27.988281 28.56985 27.090673 29.822266 25.873047 C 31.074681 24.655421 32 23.035714 32 21 C 32 17.666667 30.18578 15.724726 28.447266 14.855469 C 26.708752 13.986212 25 14 25 14 z"/></svg>