<svg fill="#000000" xmlns="http://www.w3.org/2000/svg"  viewBox="0 0 50 50" width="150px" height="150px"><path d="M 25 2 C 12.309295 2 2 12.309295 2 25 C 2 37.690705 12.309295 48 25 48 C 37.690705 48 48 37.690705 48 25 C 48 12.309295 37.690705 2 25 2 z M 25 4 C 36.609824 4 46 13.390176 46 25 C 46 36.609824 36.609824 46 25 46 C 13.390176 46 4 36.609824 4 25 C 4 13.390176 13.390176 4 25 4 z M 25 14 C 21.691 14 19 16.467 19 19.5 C 19 19.67 19.023016 19.834 19.041016 20 L 21.048828 20 C 21.019828 19.837 21 19.671 21 19.5 C 21 17.57 22.794 16 25 16 C 27.206 16 29 17.57 29 19.5 C 29 21.43 27.206 23 25 23 L 25 25 C 27.757 25 30 27.019 30 29.5 C 30 31.981 27.757 34 25 34 C 22.243 34 20 31.981 20 29.5 C 20 29.329 20.035641 29.166 20.056641 29 L 18.035156 29 C 18.021156 29.166 18 29.33 18 29.5 C 18 33.084 21.14 36 25 36 C 28.86 36 32 33.084 32 29.5 C 32 27.125 30.6165 25.048062 28.5625 23.914062 C 30.0375 22.911062 31 21.309 31 19.5 C 31 16.467 28.309 14 25 14 z"/></svg>