<svg fill="#000000" xmlns="http://www.w3.org/2000/svg"  viewBox="0 0 50 50" width="150px" height="150px"><path d="M 4 4 L 4 10 A 1.0001 1.0001 0 1 0 6 10 L 6 6 L 10 6 A 1.0001 1.0001 0 1 0 10 4 L 4 4 z M 24.5 4 C 23.432457 4 22.492177 4.4485316 21.888672 5.140625 C 21.285166 5.8327184 21 6.7244091 21 7.625 L 21 14.820312 C 20.542713 12.819991 19.988133 10.398223 19.982422 10.373047 C 19.786393 9.3279489 19.371976 8.4815295 18.744141 7.8964844 C 18.116305 7.3114392 17.296421 7.0371094 16.503906 7.0371094 C 15.647893 7.0371094 14.755068 7.364781 14.060547 8.0585938 C 13.366026 8.7524064 12.936428 9.8453527 13.074219 11.109375 A 1.0001 1.0001 0 0 0 13.083984 11.167969 C 13.083984 11.167969 13.766373 15.187035 14.449219 19.363281 C 14.743377 21.162339 15.018773 22.89686 15.257812 24.443359 L 14.826172 23.835938 C 13.710232 22.099354 11.431206 21.458625 9.7207031 22.525391 A 1.0001 1.0001 0 0 0 9.7109375 22.53125 C 8.0017788 23.624278 7.4886 25.997626 8.625 27.783203 L 8.5761719 27.699219 C 8.5761719 27.699219 9.0409232 28.579964 9.2792969 29.039062 L 4.8398438 29.039062 A 1.0001 1.0001 0 1 0 4.8398438 31.039062 L 10.806641 31.039062 A 1.0001 1.0001 0 0 0 11.070312 31.039062 L 45.160156 31.039062 A 1.0001 1.0001 0 1 0 45.160156 29.039062 L 38 29.039062 L 38 25.427734 L 38.869141 17.230469 A 1.0001 1.0001 0 0 0 38.871094 17.201172 C 38.931134 16.420609 39.067479 15.457149 38.925781 14.488281 C 38.854931 14.003847 38.707624 13.497509 38.375 13.044922 C 38.042376 12.592335 37.510699 12.239459 36.902344 12.09375 C 36.262974 11.940437 35.615946 11.981758 35.085938 12.232422 C 34.602066 12.461266 34.283202 12.842731 34.027344 13.222656 C 34.050324 13.007846 34.157805 12.005686 34.158203 12.001953 L 34.158203 11.998047 C 34.317804 10.73145 34.364223 9.7025829 33.947266 8.7714844 C 33.529842 7.8393451 32.56275 7.258383 31.462891 7.0761719 C 30.237127 6.8729703 29.115637 7.3441058 28.451172 8.1054688 C 28.171041 8.4264506 28.162855 8.8455629 28 9.21875 L 28 7.875 C 28 6.8325714 27.737995 5.8669949 27.121094 5.1367188 C 26.504193 4.4064426 25.541839 4 24.5 4 z M 40 4 A 1.0001 1.0001 0 1 0 40 6 L 44 6 L 44 10 A 1.0001 1.0001 0 1 0 46 10 L 46 4 L 40 4 z M 24.5 6 C 25.079161 6 25.365901 6.1560574 25.59375 6.4257812 C 25.821599 6.6955051 26 7.1674286 26 7.875 L 26 23.242188 A 1.0001 1.0001 0 0 0 27.994141 23.353516 L 29.369141 10.976562 C 29.442691 10.344672 29.671747 9.7468089 29.957031 9.4199219 C 30.242316 9.0930348 30.492483 8.9420297 31.136719 9.0488281 C 31.871859 9.170617 31.990221 9.2912799 32.123047 9.5878906 C 32.255873 9.8845014 32.317747 10.609543 32.173828 11.75 A 1.0001 1.0001 0 0 0 32.171875 11.769531 C 32.171875 11.769531 31.841352 14.86553 31.496094 18.048828 C 31.323465 19.640477 31.146316 21.252852 31.005859 22.511719 C 30.865403 23.770585 30.739787 24.795693 30.738281 24.804688 A 1.0001 1.0001 0 0 0 32.695312 25.208984 L 34.876953 16.371094 C 35.141786 15.581648 35.369 14.78198 35.623047 14.375 C 35.751951 14.168498 35.856978 14.080945 35.941406 14.041016 C 36.025836 14.001086 36.132417 13.966423 36.435547 14.039062 C 36.649692 14.090352 36.69642 14.138962 36.763672 14.230469 C 36.830922 14.321979 36.904663 14.501356 36.945312 14.779297 C 37.026052 15.331355 36.943716 16.19425 36.878906 17.033203 L 36.005859 25.269531 A 1.0001 1.0001 0 0 0 36 25.375 L 36 29.039062 L 17.537109 29.039062 A 1.0001 1.0001 0 0 0 17.802734 28.361328 C 17.802734 28.023305 17.753924 27.689977 17.677734 27.117188 C 17.601544 26.544397 17.493918 25.806162 17.365234 24.958984 C 17.107866 23.26463 16.765905 21.133143 16.423828 19.041016 C 15.744241 14.884697 15.073493 10.941855 15.064453 10.888672 C 14.985143 10.147921 15.189212 9.7577629 15.474609 9.4726562 C 15.760838 9.1867192 16.193919 9.0371094 16.503906 9.0371094 C 16.876392 9.0371094 17.135695 9.1309204 17.380859 9.359375 C 17.626024 9.5878298 17.878607 10.001283 18.017578 10.742188 A 1.0001 1.0001 0 0 0 18.025391 10.777344 C 18.025391 10.777344 18.774897 14.086435 19.525391 17.345703 C 19.900637 18.975337 20.276267 20.592138 20.558594 21.78125 C 20.699757 22.375806 20.81773 22.861103 20.902344 23.195312 C 20.944654 23.362417 20.976204 23.48824 21.005859 23.589844 C 21.020689 23.640644 21.023932 23.665104 21.070312 23.775391 C 21.081913 23.802961 21.094049 23.834601 21.136719 23.90625 C 21.158059 23.94207 21.249551 24.061997 21.25 24.0625 C 21.250449 24.063003 21.726204 24.359273 21.726562 24.359375 C 21.726924 24.359477 22.743869 24.064756 22.744141 24.064453 C 22.744412 24.06415 22.968568 23.643289 22.96875 23.642578 C 22.968932 23.641868 22.993024 23.512346 22.996094 23.474609 C 22.999176 23.436859 23 23.410086 23 23.388672 L 23 7.625 C 23 7.1505909 23.15524 6.7297816 23.396484 6.453125 C 23.637729 6.1764684 23.946543 6 24.5 6 z M 11.691406 24.015625 C 12.230048 24.057305 12.784609 24.358939 13.142578 24.916016 A 1.0001 1.0001 0 0 0 13.167969 24.953125 L 15.986328 28.939453 A 1.0001 1.0001 0 0 0 16.068359 29.039062 L 11.537109 29.039062 C 10.933671 27.897622 10.359375 26.792969 10.359375 26.792969 A 1.0001 1.0001 0 0 0 10.3125 26.708984 C 9.7803403 25.872825 10.090292 24.672466 10.785156 24.222656 C 11.050501 24.058777 11.368221 23.990617 11.691406 24.015625 z M 37.037109 32.986328 A 1.0001 1.0001 0 0 0 36.001953 33.949219 C 35.832156 37.309382 34.876838 39.877739 33.677734 41.5625 C 32.478631 43.247261 31.060556 44 30 44 A 1.0001 1.0001 0 1 0 30 46 C 31.939444 46 33.844744 44.776645 35.306641 42.722656 C 36.768537 40.668667 37.811844 37.735618 37.998047 34.050781 A 1.0001 1.0001 0 0 0 37.037109 32.986328 z M 12.835938 32.990234 A 1.0001 1.0001 0 0 0 12.023438 34.505859 C 12.163115 34.745011 12.620235 35.663956 13.244141 36.783203 C 13.868047 37.90245 14.688593 39.272253 15.691406 40.613281 C 17.697033 43.295337 20.464944 46 24 46 A 1.0001 1.0001 0 1 0 24 44 C 21.535056 44 19.146045 41.889506 17.294922 39.414062 C 16.36936 38.176341 15.587422 36.881863 14.990234 35.810547 C 14.393047 34.739231 14.00982 33.940943 13.75 33.496094 A 1.0001 1.0001 0 0 0 12.835938 32.990234 z M 4.984375 38.986328 A 1.0001 1.0001 0 0 0 4 40 L 4 46 L 10 46 A 1.0001 1.0001 0 1 0 10 44 L 6 44 L 6 40 A 1.0001 1.0001 0 0 0 4.984375 38.986328 z M 44.984375 38.986328 A 1.0001 1.0001 0 0 0 44 40 L 44 44 L 40 44 A 1.0001 1.0001 0 1 0 40 46 L 46 46 L 46 40 A 1.0001 1.0001 0 0 0 44.984375 38.986328 z"/></svg>