<svg fill="#000000" xmlns="http://www.w3.org/2000/svg"  viewBox="0 0 50 50" width="150px" height="150px"><path d="M 24.066406 7.9375 C 23.152344 7.9375 22.1875 8.21875 21.390625 8.84375 C 21.050781 9.117188 20.757813 9.472656 20.523438 9.878906 C 19.777344 9.292969 18.882813 9 18.003906 9 C 17.066406 9 16.109375 9.320313 15.332031 9.976563 C 14.558594 10.628906 14.003906 11.667969 14.003906 12.902344 L 14.003906 14.699219 C 14.003906 14.722656 14.007813 14.746094 14.007813 14.769531 L 14.03125 21 C 12.332031 21.699219 10.003906 24.03125 10.003906 27.929688 C 10.003906 30.230469 10.898438 32.210938 11 32.511719 L 13.902344 38.011719 C 15.402344 41.113281 18.5 43.011719 21.902344 43.011719 L 31 43.011719 C 36 43.011719 40 39.011719 40 34.011719 L 40 16.011719 C 40 11.613281 37.5 11.011719 36 11.011719 C 35.300781 11.011719 34.5 11.109375 33.699219 11.710938 C 33 9.511719 31.398438 9.011719 30 9.011719 C 28.925781 9.011719 28.046875 9.300781 27.445313 9.78125 C 27.246094 9.460938 27.019531 9.164063 26.75 8.929688 C 25.976563 8.257813 25.007813 7.9375 24.066406 7.9375 Z M 24 10.011719 C 25.5 10.011719 26 11.210938 26 12.011719 L 26 15.011719 C 26 15.613281 26.398438 16.011719 27 16.011719 C 27.601563 16.011719 28 15.613281 28 15.011719 L 28 13.011719 C 28 12.113281 28.300781 11.011719 30 11.011719 C 31 11.011719 32 11.210938 32 14.011719 L 32 16.011719 C 32 16.613281 32.398438 17.011719 33 17.011719 C 33.601563 17.011719 34 16.613281 34 16.011719 C 34 13.410156 35 13.011719 36 13.011719 C 37 13.011719 38 13.410156 38 16.011719 L 38 34.011719 C 38 37.910156 34.898438 41.011719 31 41.011719 L 21.902344 41.011719 C 19.199219 41.011719 16.800781 39.511719 15.597656 37.109375 L 12.800781 31.511719 C 12.5 30.910156 12.003906 29.328125 12.003906 27.828125 C 12.003906 23.828125 15 22.910156 15.097656 22.910156 C 15.5 22.8125 16.003906 22.429688 16.003906 21.929688 L 15.996094 14.847656 C 16.003906 14.796875 16.007813 14.75 16.003906 14.699219 L 16.003906 12.902344 C 16.003906 12.230469 16.25 11.820313 16.625 11.5 C 17.003906 11.179688 17.542969 11 18.003906 11 C 18.46875 11 19 11.179688 19.375 11.503906 C 19.75 11.828125 20.003906 12.265625 20.003906 13 L 20.003906 14.699219 C 20 15.058594 20.191406 15.394531 20.5 15.578125 C 20.8125 15.757813 21.199219 15.757813 21.511719 15.578125 C 21.820313 15.394531 22.011719 15.058594 22.003906 14.699219 L 22.003906 11.933594 C 22.035156 11.136719 22.546875 10.011719 24 10.011719 Z"/></svg>