<svg fill="#000000" xmlns="http://www.w3.org/2000/svg"  viewBox="0 0 50 50" width="150px" height="150px"><path d="M 43.517578 9.9492188 C 43.200619 9.9457426 42.869832 9.9751535 42.529297 10.037109 A 1.0001 1.0001 0 0 0 42.462891 10.050781 L 23.458984 14.851562 C 23.394036 14.724175 23.351074 14.604343 23.273438 14.474609 C 22.475438 13.141132 20.899549 11.678123 18.230469 11.210938 C 17.2622 11.041317 16.313254 11.050925 15.494141 11.136719 C 14.678334 11.222169 13.993547 11.382813 13.546875 11.515625 L 4.7460938 14.060547 C 1.5402754 14.988323 -5.9211895e-16 18.400273 0 21.480469 L 0 34 C 0 38.958516 4.0414839 43 9 43 L 20 43 C 23.794424 43 26.599112 41.41301 27.271484 41 L 30 41 C 32.197334 41 34 39.197334 34 37 C 34 36.251892 33.778359 35.558078 33.416016 34.957031 C 35.383162 34.747776 36.937199 33.111076 36.990234 31.103516 L 45.900391 31.994141 A 1.0001 1.0001 0 0 0 46 32 C 47.223833 32 48.287931 31.557113 48.986328 30.798828 C 49.684725 30.040543 50 29.029667 50 28 C 50 26.928491 49.567156 25.956102 48.859375 25.285156 C 48.151594 24.614211 47.221147 24.222565 46.193359 24.019531 A 1.0001 1.0001 0 0 0 46.15625 24.011719 L 31.380859 21.679688 L 43.251953 17.96875 C 44.380177 17.674848 45.299954 17.199325 45.960938 16.517578 C 46.62192 15.835831 46.985939 14.936289 47 14.015625 A 1.0001 1.0001 0 0 0 47 14.001953 L 47 13.576172 C 47.012756 12.565924 46.688726 11.523998 45.892578 10.800781 C 45.295467 10.258368 44.468455 9.9596473 43.517578 9.9492188 z M 43.501953 11.943359 C 44.03098 11.937893 44.338446 12.090142 44.548828 12.28125 C 44.83068 12.537283 45.007244 12.977029 45 13.550781 A 1.0001 1.0001 0 0 0 45 13.5625 L 45 13.986328 C 44.9931 14.440664 44.857205 14.780747 44.523438 15.125 C 44.18967 15.469253 43.619823 15.806106 42.748047 16.033203 A 1.0001 1.0001 0 0 0 42.701172 16.046875 L 26.798828 21.015625 A 1.0001 1.0001 0 0 0 26.273438 21.296875 A 1.0001 1.0001 0 0 0 26.146484 21.451172 A 1.0001 1.0001 0 0 0 26.095703 21.537109 A 1.0001 1.0001 0 0 0 26.066406 21.597656 A 1.0001 1.0001 0 0 0 26.044922 21.648438 A 1.0001 1.0001 0 0 0 26.037109 21.671875 A 1.0001 1.0001 0 0 0 26.011719 21.753906 A 1.0001 1.0001 0 0 0 26.960938 23.005859 L 45.8125 25.984375 C 46.572361 26.135732 47.141455 26.411255 47.484375 26.736328 C 47.828594 27.062633 48 27.414509 48 28 C 48 28.627333 47.815275 29.115894 47.513672 29.443359 C 47.213692 29.769062 46.776173 29.99365 46.007812 29.996094 L 36.462891 29.042969 C 35.77267 27.832156 34.484066 27 33 27 L 25.453125 27 L 24.169922 17.076172 C 24.169922 17.076172 24.152494 16.939301 24.119141 16.746094 L 42.894531 12.005859 C 43.124753 11.964617 43.325611 11.945182 43.501953 11.943359 z M 16.775391 13.089844 C 17.149145 13.092021 17.5269 13.11895 17.884766 13.181641 C 20.014686 13.554454 20.99739 14.56743 21.556641 15.501953 C 22.115892 16.436476 22.175781 17.228516 22.175781 17.228516 A 1.0001 1.0001 0 0 0 22.179688 17.279297 L 23.667969 28.78125 A 1.0001 1.0001 0 0 0 23.685547 28.884766 C 24.008326 30.240005 23.188424 31.573724 21.833984 31.896484 C 21.096646 32.072097 20.533378 31.987054 20.048828 31.697266 C 19.56586 31.408419 19.118765 30.867449 18.796875 29.951172 L 16.539062 21.224609 A 1.0001 1.0001 0 0 0 15.091797 20.597656 L 12.167969 22.191406 A 1.0001 1.0001 0 1 0 13.125 23.947266 L 14.925781 22.966797 L 14.986328 23.199219 C 14.710568 23.703786 12.676145 27.165074 7.828125 28.009766 A 1.0002293 1.0002293 0 1 0 8.171875 29.980469 C 11.914006 29.328461 14.313161 27.230365 15.628906 25.683594 L 16.880859 30.527344 A 1.0001 1.0001 0 0 0 16.904297 30.605469 C 17.341186 31.855696 18.059988 32.837856 19.023438 33.414062 C 19.472637 33.682714 19.967878 33.843735 20.482422 33.921875 C 19.586465 34.657459 19 35.759317 19 37 C 19 38.813192 20.234624 40.339625 21.898438 40.824219 C 21.298248 40.924582 20.671226 41 20 41 L 9 41 C 5.1225161 41 2 37.877484 2 34 L 2 21.480469 C 2 19.076665 3.2425528 16.578646 5.3027344 15.982422 L 14.103516 13.4375 A 1.0001 1.0001 0 0 0 14.111328 13.433594 C 14.563535 13.298778 15.654126 13.083312 16.775391 13.089844 z M 25.707031 29 L 33 29 C 34.116666 29 35 29.883334 35 31 C 35 32.116666 34.116666 33 33 33 L 30 33 L 29 33 L 24.015625 33 C 25.207134 32.062684 25.868073 30.560077 25.707031 29 z M 23 35 L 29 35 L 30 35 C 31.116666 35 32 35.883334 32 37 C 32 38.116666 31.116666 39 30 39 L 27.132812 39 A 1.0001 1.0001 0 0 0 26.882812 39 L 23 39 C 21.883334 39 21 38.116666 21 37 C 21 35.883334 21.883334 35 23 35 z"/></svg>